<svg width="80" height="55" viewBox="0 0 149 35" fill="none" xmlns="http://www.w3.org/2000/svg">
<path d="M0 20C0 8.9543 8.95431 0 20 0H78V65H20C8.9543 65 0 56.0457 0 45V20Z" fill="#344955"/>
<path d="M138.029 25.2205C144.914 28.3584 148.356 29.9273 148.356 32.5C148.356 35.0727 144.914 36.6416 138.029 39.7795L94.068 59.8172C88.971 62.1404 86.4224 63.3021 84.5862 62.121C82.75 60.94 82.75 58.1393 82.75 52.5377L82.75 12.4623C82.75 6.86074 82.75 4.05996 84.5862 2.87895C86.4224 1.69795 88.9709 2.85957 94.068 5.18283L138.029 25.2205Z" fill="#F9AA33"/>
<circle cx="44" cy="32" r="15" fill="#F9AA33"/>
</svg>
